<?xml version="1.0" encoding="utf-8"?>
<!-- Generator: Adobe Illustrator 16.0.0, SVG Export Plug-In . SVG Version: 6.00 Build 0)  -->
<!DOCTYPE svg PUBLIC "-//W3C//DTD SVG 1.1//EN" "http://www.w3.org/Graphics/SVG/1.1/DTD/svg11.dtd">
<svg version="1.1" id="Layer_1" xmlns="http://www.w3.org/2000/svg" xmlns:xlink="http://www.w3.org/1999/xlink" x="0px" y="0px"
	 width="100px" height="100px" viewBox="0 0 100 100" enable-background="new 0 0 100 100" xml:space="preserve">
<g>
	<path fill-rule="evenodd" clip-rule="evenodd" fill="#11822C" d="M51.615,2.309c0.345,0.188,0.729,0.122,1.095,0.155
		C64.082,3.477,73.853,7.961,82,15.965c1.951,1.919,1.984,4.862,0.102,6.745c-1.85,1.85-4.778,1.79-6.713-0.137
		c-3.771-3.75-8.133-6.599-13.099-8.499c-5.496-2.102-11.185-2.856-17.042-2.311c-16.207,1.512-29.795,13.648-33.17,29.614
		c-4.183,19.797,7.98,39.494,27.617,44.244c13.52,3.269,25.452-0.116,35.557-9.696c1.773-1.682,4.148-2.052,6.046-0.872
		c2.507,1.56,2.949,5.027,0.88,7.188c-1.662,1.737-3.498,3.286-5.435,4.712c-6.276,4.62-13.279,7.479-20.979,8.635
		c-1.177,0.176-2.368,0.262-3.553,0.395c-0.111,0.014-0.265-0.062-0.324,0.112c-0.158,0-0.317,0-0.477,0
		c-0.453-0.196-0.924-0.067-1.388-0.075c-0.07,0.025-0.142,0.028-0.215,0.018c-0.193-0.064-0.384-0.036-0.578,0.008
		c-0.232-0.007-0.465,0.019-0.699-0.017c-0.759-0.009-1.521-0.128-2.271,0.066c-0.065,0-0.129,0-0.192,0
		c-0.719-0.119-1.448-0.078-2.171-0.146c-1.807-0.168-3.59-0.48-5.359-0.87c-4.231-0.934-8.253-2.447-12.065-4.499
		c-2.937-1.58-5.664-3.464-8.197-5.634c-2.566-2.199-4.882-4.638-6.92-7.334c-1.477-1.955-2.795-4.013-3.957-6.175
		c-1.57-2.925-2.803-5.983-3.729-9.167c-0.775-2.677-1.304-5.404-1.576-8.178c-0.053-0.531-0.004-1.073-0.107-1.604
		c0-1.939,0-3.88,0-5.82c0.075-0.128,0.075-0.255,0-0.382c0-0.157,0-0.317,0-0.477c0.147-0.873,0.123-1.762,0.235-2.643
		c0.354-2.75,0.943-5.446,1.764-8.093c0.751-2.42,1.701-4.761,2.835-7.021c1.667-3.323,3.704-6.41,6.115-9.243
		c3.385-3.979,7.301-7.335,11.797-10.003c3.739-2.22,7.706-3.899,11.909-5.024c2.541-0.679,5.121-1.13,7.73-1.391
		c0.596-0.061,1.195-0.166,1.804-0.115c0.076,0.005,0.154,0.019,0.229,0.036c0.553,0.081,1.104,0.069,1.658,0.001
		c0.082-0.015,0.164-0.012,0.246,0.002c0.973,0.053,1.945,0.105,2.915-0.03C51.356,2.227,51.491,2.189,51.615,2.309z"/>
	<path fill-rule="evenodd" clip-rule="evenodd" fill="#2B2B2B" d="M46.259,96.095c0.028-0.053,0.056-0.15,0.088-0.152
		c0.734-0.023,1.472-0.138,2.199,0.056c-0.301,0.104-0.609,0.021-0.915,0.048c-0.19-0.001-0.38,0-0.569,0
		c-0.204,0.023-0.414-0.051-0.612,0.049C46.385,96.095,46.321,96.095,46.259,96.095z"/>
	<path fill-rule="evenodd" clip-rule="evenodd" fill="#454545" d="M47.588,96.005c0.319-0.002,0.639-0.004,0.959-0.007
		c0.256,0,0.51,0,0.765,0.001c0.156-0.073,0.313-0.065,0.471-0.004c0.067,0,0.134,0,0.201-0.001c0.034-0.031,0.071-0.033,0.11-0.008
		c0.021,0.041,0.012,0.077-0.02,0.108c-0.827,0-1.653,0-2.48,0c-0.031-0.018-0.042-0.037-0.033-0.058S47.578,96.005,47.588,96.005z"
		/>
	<path fill-rule="evenodd" clip-rule="evenodd" fill="#2B2B2B" d="M97.4,50.581c-0.081-0.013-0.177-0.045-0.174-0.13
		c0.015-0.529-0.113-1.065,0.072-1.585c0.146,0.371-0.036,0.771,0.102,1.143C97.4,50.201,97.4,50.39,97.4,50.581z"/>
	<path fill-rule="evenodd" clip-rule="evenodd" fill="#2B2B2B" d="M50.079,96.005c-0.032-0.003-0.064-0.007-0.095-0.011
		c0.484-0.091,0.975-0.269,1.426,0.101c-0.254,0-0.509,0-0.763,0C50.472,95.973,50.256,96.113,50.079,96.005z"/>
	<path fill-rule="evenodd" clip-rule="evenodd" fill="#5C5C5C" d="M97.4,50.008c-0.212-0.365-0.026-0.765-0.102-1.143
		c0-0.035,0-0.069,0-0.102c-0.023-0.141-0.154-0.311,0.102-0.377C97.4,48.928,97.4,49.469,97.4,50.008z"/>
	<path fill-rule="evenodd" clip-rule="evenodd" fill="#2B2B2B" d="M97.4,48.387c-0.155,0.093-0.074,0.25-0.102,0.377
		c-0.087-0.33-0.267-0.668,0.102-0.95C97.4,48.006,97.4,48.196,97.4,48.387z"/>
	<path fill-rule="evenodd" clip-rule="evenodd" fill="#6B6B6B" d="M47.588,96.005c0.004,0.03,0.007,0.06,0.006,0.09
		c-0.191,0-0.382,0-0.573,0c-0.027-0.014-0.039-0.031-0.031-0.05c0.007-0.02,0.014-0.028,0.022-0.028
		C47.203,96.012,47.396,96.009,47.588,96.005z"/>
	<path fill-rule="evenodd" clip-rule="evenodd" fill="#646464" d="M50.079,96.005c0.189,0.032,0.403-0.096,0.568,0.09
		c-0.191,0-0.382,0-0.573,0C50.074,96.064,50.075,96.035,50.079,96.005z"/>
	<path fill-rule="evenodd" clip-rule="evenodd" fill="#989898" d="M47.012,96.017c0.005,0.024,0.008,0.052,0.009,0.078
		c-0.19,0-0.381,0-0.571,0C46.611,95.896,46.822,96.039,47.012,96.017z"/>
	<path fill-rule="evenodd" clip-rule="evenodd" fill="#9C9C9C" d="M1.984,46.287c0.163,0.127,0.121,0.254,0,0.382
		C1.984,46.541,1.984,46.414,1.984,46.287z"/>
	<path fill-rule="evenodd" clip-rule="evenodd" fill="#2D2D2D" d="M30.708,54.003c0.165-0.145,0.364-0.078,0.548-0.078
		c10.793-0.004,21.586-0.004,32.377-0.001c0.154,0,0.316-0.043,0.474,0.045c-0.173,0.09-0.35,0.045-0.519,0.045
		c-10.729,0.003-21.456,0.002-32.187,0.003c-0.206,0-0.412,0.005-0.618,0.008C30.752,54.037,30.727,54.029,30.708,54.003z"/>
	<path fill-rule="evenodd" clip-rule="evenodd" fill="#2C2C2C" d="M30.046,38.274c0.145,0.146,0.083,0.331,0.083,0.497
		c0.003,4.6,0.003,9.197,0,13.794c0,0.167,0.064,0.353-0.088,0.496c-0.008-0.776-0.021-1.553-0.021-2.328
		c-0.002-3.98-0.001-7.959,0-11.939C30.021,38.622,30.038,38.447,30.046,38.274z"/>
	<path fill-rule="evenodd" clip-rule="evenodd" fill="#2E2E2E" d="M64.195,44.306c-0.041,0.202-0.201,0.168-0.339,0.168
		c-4.244-0.001-8.487-0.001-12.73-0.004c-0.028,0-0.056-0.022-0.096-0.038c0.165-0.101,0.338-0.048,0.5-0.048
		c4.005-0.006,8.01-0.003,12.014-0.008c0.185,0,0.384,0.064,0.553-0.071C64.13,44.306,64.162,44.306,64.195,44.306z"/>
	<path fill-rule="evenodd" clip-rule="evenodd" fill="#2D2D2D" d="M50.834,44.188c-0.15-0.142-0.089-0.328-0.089-0.494
		c-0.005-1.612-0.019-3.225,0.01-4.836c0.006-0.324-0.245-0.638-0.033-0.963c0.102,0.133,0.128,0.289,0.128,0.449
		C50.846,40.293,50.839,42.238,50.834,44.188z"/>
	<path fill-rule="evenodd" clip-rule="evenodd" fill="#2B2B2B" d="M45.876,38.082c0.121,0.094,0.094,0.227,0.096,0.352
		c0,1.859,0,3.718-0.002,5.577c0,0.059-0.018,0.116-0.111,0.171c0-2.014,0-4.027,0-6.041C45.842,38.115,45.849,38.096,45.876,38.082
		z"/>
	<path fill-rule="evenodd" clip-rule="evenodd" fill="#252525" d="M37.139,44.275c-0.155-0.063-0.136-0.197-0.136-0.323
		c0-1.838,0-3.677,0-5.514c0-0.097,0.006-0.19,0.088-0.259c0.085,1.029,0.021,2.063,0.034,3.093
		C37.141,42.273,37.135,43.273,37.139,44.275z"/>
	<path fill-rule="evenodd" clip-rule="evenodd" fill="#232323" d="M36.144,37.317c-0.09,0.12-0.225,0.096-0.348,0.096
		c-1.486,0.002-2.973,0.002-4.457,0c-0.124,0-0.257,0.024-0.349-0.096C32.708,37.262,34.426,37.262,36.144,37.317z"/>
	<path fill-rule="evenodd" clip-rule="evenodd" fill="#232323" d="M49.883,37.318c-0.105,0.134-0.257,0.093-0.394,0.093
		c-0.786,0.004-1.572,0.004-2.357,0c-0.137,0-0.286,0.04-0.396-0.089C47.785,37.255,48.834,37.262,49.883,37.318z"/>
	<path fill-rule="evenodd" clip-rule="evenodd" fill="#2B2B2B" d="M49.783,95.995c-0.157,0.001-0.313,0.002-0.471,0.004
		C49.467,95.859,49.625,95.859,49.783,95.995z"/>
	<g>
		<path fill-rule="evenodd" clip-rule="evenodd" fill="#11822C" d="M30.046,38.274c0.084-0.592,0.358-0.87,0.944-0.957
			c0.147,0.094,0.308,0.048,0.464,0.048c1.408,0.005,2.818,0.005,4.226,0c0.156,0,0.319,0.046,0.464-0.048
			c0.568,0.076,0.808,0.294,0.947,0.862c-0.086,0.214-0.038,0.44-0.04,0.658c-0.005,1.67-0.005,3.339,0.003,5.008
			c0,0.14-0.094,0.316,0.085,0.43c2.776,0.003,5.552,0,8.328,0.017c0.348,0.004,0.334-0.165,0.332-0.404
			c-0.004-1.761-0.001-3.521,0.002-5.282c0-0.156-0.039-0.318,0.058-0.465c0.122,0.157,0.059,0.338,0.06,0.507
			c0.006,1.8,0.004,3.601,0.004,5.289c0.028,0.177,0.112,0.084,0.063,0.12c-0.017,0.014-0.028,0.002-0.034-0.034
			c-0.056-0.376-0.021-0.756-0.022-1.134c-0.006-1.447-0.001-2.894-0.006-4.341c0-0.155,0.044-0.318-0.046-0.466
			c0.11-0.453,0.394-0.71,0.859-0.76c1.05,0.073,2.099,0.079,3.147-0.004c0.406,0.011,0.672,0.223,0.839,0.577
			c0.143,1.925,0.029,3.854,0.067,5.78c0.004,0.17-0.042,0.347,0.044,0.513c0.151,0.18,0.356,0.091,0.535,0.091
			c4.053,0.007,8.104,0.005,12.157,0.007c0.19,0,0.381,0.011,0.57,0.019c-0.078,0.226-0.269,0.114-0.402,0.114
			c-4.163,0.008-8.325,0.008-12.37,0.008c0.049-0.008,0.216,0.002,0.385,0.002c3.969,0,7.938,0.002,11.907-0.004
			c0.196,0,0.419,0.08,0.579-0.119c0.297,0.007,0.29-0.247,0.352-0.428c1.455-4.213,4.127-7.408,8.045-9.528
			c10.049-5.434,22.614,0.696,24.546,11.954c0.075,0.441,0.047,0.906,0.263,1.321c0,0.061,0,0.126,0,0.188
			c-0.185,0.312-0.08,0.642-0.064,0.964c0.007,0.051,0.002,0.099-0.016,0.147c0.016,0.553-0.113,1.111,0.08,1.656
			c0,0.064,0,0.127,0,0.191c-0.218,0.413-0.187,0.878-0.263,1.319c-1.228,7.051-6.78,12.554-13.875,13.734
			c-8.091,1.347-16.052-3.426-18.672-11.211c-0.136-0.405-0.308-0.516-0.726-0.515c-10.813,0.014-21.623,0.011-32.437,0.007
			c-0.216,0-0.446,0.063-0.646-0.083c0.129-0.095,0.275-0.052,0.415-0.052c10.81-0.003,21.617-0.003,32.427-0.002
			c0.104,0,0.21-0.021,0.238-0.008c-0.099,0.011-0.273,0.004-0.448,0.004c-10.713,0-21.429,0-32.141,0.002
			c-0.189,0-0.382-0.034-0.566,0.034c-0.441-0.159-0.659-0.476-0.667-0.941c0.077-0.134,0.043-0.279,0.043-0.42
			c0.003-4.648,0.003-9.298,0-13.946C30.084,38.554,30.114,38.411,30.046,38.274z"/>
		<path fill-rule="evenodd" clip-rule="evenodd" fill="#330632" d="M80.496,59.006c-5.432-0.025-9.818-4.446-9.786-9.86
			c0.032-5.416,4.462-9.784,9.894-9.756c5.461,0.028,9.784,4.456,9.748,9.983C90.316,54.687,85.869,59.033,80.496,59.006z"/>
	</g>
	<path fill-rule="evenodd" clip-rule="evenodd" fill="#2E2E2E" d="M37.891,44.4c2.596,0,5.191,0,7.787,0c0,0.024,0,0.046,0,0.069
		c-2.601,0-5.202,0-7.802,0C37.882,44.446,37.886,44.425,37.891,44.4z"/>
</g>
</svg>
