<?xml version="1.0" encoding="utf-8"?>
<!-- Generator: Adobe Illustrator 16.0.0, SVG Export Plug-In . SVG Version: 6.00 Build 0)  -->
<!DOCTYPE svg PUBLIC "-//W3C//DTD SVG 1.1//EN" "http://www.w3.org/Graphics/SVG/1.1/DTD/svg11.dtd">
<svg version="1.1" id="Layer_1" xmlns="http://www.w3.org/2000/svg" xmlns:xlink="http://www.w3.org/1999/xlink" x="0px" y="0px"
	 width="50px" height="50px" viewBox="0 0 50 50" enable-background="new 0 0 50 50" xml:space="preserve">
<g display="none">
	<path display="inline" fill-rule="evenodd" clip-rule="evenodd" fill="#FFCE00" d="M32.167,15.885
		c0.174,0.321,0.358,0.636,0.513,0.966c0.095,0.203,0.242,0.24,0.439,0.268c2.501,0.36,5.001,0.732,7.501,1.095
		c2.865,0.417,5.734,0.828,8.602,1.245c0.091,0.014,0.181,0.059,0.321,0.104c-0.288,0.292-0.501,0.59-0.834,0.768
		c-0.314-0.042-0.651-0.001-0.916-0.241c-0.405-0.303-0.902-0.229-1.358-0.311c-0.894-0.16-1.799-0.245-2.695-0.402
		c-0.191-0.015-0.385-0.006-0.573-0.049c-0.203-0.075-0.424-0.06-0.634-0.106c-0.228-0.084-0.477-0.046-0.707-0.101
		c-0.231-0.083-0.477-0.045-0.711-0.102c-0.23-0.084-0.479-0.045-0.713-0.101c-0.236-0.085-0.489-0.043-0.726-0.102
		c-0.437-0.099-0.879-0.152-1.32-0.2c-1.161-0.186-2.324-0.346-3.487-0.498c-0.239-0.091-0.499-0.058-0.743-0.111
		c-0.492-0.123-1.002-0.138-1.493-0.253c-0.131-0.031-0.3-0.026-0.37-0.139c-0.324-0.503-0.711-0.981-0.724-1.624
		C31.726,15.826,31.938,15.805,32.167,15.885z"/>
	<path display="inline" fill-rule="evenodd" clip-rule="evenodd" fill="#FFCE00" d="M1.847,20.363
		c-0.267-0.251-0.534-0.502-0.885-0.833c0.952-0.144,1.792-0.274,2.635-0.397c3.186-0.465,6.372-0.928,9.559-1.389
		c1.285-0.186,2.568-0.383,3.855-0.542c0.523-0.063,0.942-0.191,1.078-0.771c0.029-0.124,0.131-0.231,0.2-0.345
		c0.237-0.306,0.483-0.282,0.734-0.018c-0.039,0.581-0.371,1.039-0.673,1.498c-0.164,0.25-0.516,0.223-0.794,0.261
		c-0.384,0.051-0.768,0.112-1.147,0.19c-1.431,0.177-2.856,0.412-4.287,0.597c-0.391,0.035-0.771,0.145-1.165,0.156
		c-0.26,0.08-0.538,0.069-0.798,0.146c-0.263,0.065-0.54,0.011-0.799,0.103c-0.236,0.056-0.487,0.019-0.72,0.104
		c-0.137,0.033-0.275,0.039-0.415,0.046c-1.617,0.268-3.242,0.481-4.865,0.709c-0.215,0.029-0.431,0.062-0.597,0.225
		C2.499,20.335,2.147,20.258,1.847,20.363z"/>
	<path display="inline" fill-rule="evenodd" clip-rule="evenodd" fill="#FFCE00" d="M28.625,41.963c-1-0.521-2.004-1.03-2.996-1.566
		c-0.252-0.136-0.442-0.127-0.693,0c-1,0.514-1.96,1.104-3.002,1.536c-0.247-0.045-0.498-0.033-0.746-0.057
		c-0.179-0.018-0.379-0.012-0.421-0.256c0.19-0.458,0.715-0.451,1.023-0.742c0.342-0.179,0.691-0.343,1.032-0.524
		c0.324-0.15,0.646-0.308,0.938-0.516c0.087-0.053,0.178-0.096,0.27-0.142c1.542-0.721,0.943-0.759,2.578,0.041
		c0.349,0.255,0.746,0.423,1.133,0.611c0.332,0.187,0.68,0.339,1.014,0.519c0.31,0.243,0.701,0.353,0.99,0.623
		c0.035,0.043,0.053,0.09,0.056,0.143c-0.058,0.239-0.258,0.228-0.436,0.243C29.116,41.895,28.867,41.899,28.625,41.963z"/>
	<path display="inline" fill-rule="evenodd" clip-rule="evenodd" fill="#FFCE00" d="M39.263,42.047
		c0.349,1.988,0.698,3.978,1.071,6.099c-1.708-0.909-3.312-1.766-4.922-2.62c-0.004-0.283,0.227-0.237,0.386-0.261
		c0.272-0.038,0.556,0.005,0.83-0.056c0.052-0.012,0.107-0.014,0.163-0.012c0.285,0.039,0.519,0.209,0.777,0.318
		c0.419,0.233,0.864,0.411,1.264,0.68c0.161,0.072,0.348,0.192,0.28-0.15c-0.033-0.164-0.051-0.334-0.103-0.495
		c-0.016-0.048-0.026-0.096-0.035-0.144c-0.029-0.157-0.022-0.313-0.063-0.466c-0.176-0.82-0.294-1.652-0.434-2.476
		c-0.037-0.218-0.072-0.437,0.065-0.634C38.852,41.679,39.128,41.624,39.263,42.047z"/>
	<path display="inline" fill-rule="evenodd" clip-rule="evenodd" fill="#FFCE00" d="M15.138,45.488
		c-1.544,0.961-3.202,1.709-4.902,2.652c0.368-2.103,0.719-4.099,1.069-6.094c0.13-0.423,0.409-0.363,0.714-0.223
		c0.144,0.197,0.106,0.413,0.072,0.63c-0.188,1.188-0.401,2.375-0.615,3.559c-0.008,0.078-0.08,0.173-0.01,0.23
		c0.114,0.097,0.204-0.032,0.303-0.071c0.696-0.356,1.33-0.85,2.136-0.966c0.264,0.059,0.534,0.025,0.797,0.058
		C14.869,45.281,15.09,45.227,15.138,45.488z"/>
	<path display="inline" fill-rule="evenodd" clip-rule="evenodd" fill="#FFCE00" d="M36.745,45.297
		c-0.244,0.147-0.516,0.082-0.776,0.103c-0.19,0.014-0.405-0.074-0.557,0.126c-2.044-1.069-4.091-2.133-6.134-3.203
		c-0.219-0.114-0.437-0.237-0.653-0.359c0.138-0.303,0.413-0.19,0.645-0.219c0.175-0.022,0.417,0.103,0.478-0.2
		c0.377-0.067,0.629,0.226,0.941,0.34c0.68,0.459,1.47,0.716,2.16,1.163c0.289,0.171,0.594,0.313,0.897,0.455
		c0.867,0.447,1.713,0.938,2.594,1.354C36.522,44.945,36.771,45.004,36.745,45.297z"/>
	<path display="inline" fill-rule="evenodd" clip-rule="evenodd" fill="#FFCE00" d="M15.138,45.488
		c-0.414-0.239-0.905,0.057-1.316-0.191c-0.025-0.293,0.221-0.352,0.404-0.44c1.734-0.853,3.409-1.818,5.141-2.676
		c0.166-0.081,0.329-0.173,0.48-0.279c0.278-0.137,0.544-0.296,0.841-0.393c0.049-0.008,0.093,0.006,0.133,0.035
		c0.063,0.308,0.309,0.176,0.486,0.2c0.22,0.028,0.478-0.077,0.626,0.188c-1.445,0.874-2.967,1.599-4.456,2.386
		C16.707,44.727,15.968,45.201,15.138,45.488z"/>
	<path display="inline" fill-rule="evenodd" clip-rule="evenodd" fill="#FFCE00" d="M47.902,20.039
		c0.229,0.208,0.608,0.003,0.807,0.292c-0.472,0.615-1.068,1.112-1.615,1.654c-1.198,1.184-2.411,2.355-3.619,3.529
		c-0.105,0.103-0.231,0.188-0.348,0.281c-0.306-0.067-0.696,0.101-0.873-0.32c0.019-0.259,0.258-0.347,0.398-0.514
		c0.654-0.63,1.285-1.283,1.931-1.924c0.184-0.172,0.36-0.351,0.536-0.534c0.52-0.496,0.997-1.035,1.54-1.511
		c0.306-0.188,0.523-0.474,0.786-0.709C47.576,20.168,47.671,19.972,47.902,20.039z"/>
	<path display="inline" fill-rule="evenodd" clip-rule="evenodd" fill="#FFCE00" d="M1.847,20.363
		c0.024-0.233,0.196-0.216,0.362-0.223c0.157-0.008,0.332,0.053,0.458-0.1c0.231-0.068,0.327,0.128,0.456,0.245
		c0.264,0.235,0.483,0.52,0.788,0.708C4.48,21.506,5,22.071,5.55,22.604c0.173,0.183,0.351,0.36,0.533,0.534
		c0.637,0.643,1.277,1.282,1.92,1.917c0.109,0.128,0.262,0.227,0.274,0.418c-0.173,0.383-0.56,0.229-0.843,0.337
		c-1.641-1.588-3.283-3.174-4.921-4.764C2.285,20.825,2.069,20.591,1.847,20.363z"/>
	<path display="inline" fill-rule="evenodd" clip-rule="evenodd" fill="#FFCE00" d="M7.435,25.81c0.027-0.222,0.196-0.19,0.342-0.19
		c0.188,0,0.374,0.008,0.466-0.204c0.342-0.03,0.446,0.295,0.667,0.446c0.369,0.379,0.746,0.751,1.123,1.123
		c0.608,0.615,1.219,1.226,1.835,1.83c0.275,0.288,0.578,0.548,0.88,0.809c0.228,0.198,0.538,0.364,0.503,0.746
		c-0.211,0.353-0.565,0.216-0.87,0.255c-0.861-0.826-1.727-1.646-2.581-2.479C9.008,27.373,8.225,26.59,7.435,25.81z"/>
	<path display="inline" fill-rule="evenodd" clip-rule="evenodd" fill="#FFCE00" d="M42.325,25.417
		c0.017,0.206,0.166,0.206,0.317,0.202c0.185-0.006,0.347,0.055,0.484,0.177c-1.447,1.43-2.893,2.863-4.34,4.292
		c-0.192,0.188-0.4,0.357-0.602,0.537c-0.304-0.039-0.656,0.098-0.869-0.248c-0.063-0.307,0.176-0.454,0.348-0.616
		c0.341-0.317,0.721-0.593,1.033-0.943c0.621-0.603,1.224-1.22,1.837-1.833c0.415-0.4,0.817-0.812,1.224-1.222
		C41.938,25.639,42.031,25.362,42.325,25.417z"/>
	<path display="inline" fill-rule="evenodd" clip-rule="evenodd" fill="#FFCE00" d="M37.354,30.286
		c0.08,0.175,0.228,0.202,0.4,0.202c0.156,0,0.328-0.038,0.432,0.137c-0.676,0.479-0.744,1.081-0.562,1.872
		c0.294,1.273,0.439,2.581,0.648,3.874c-0.2,0.173-0.425,0.147-0.653,0.077c-0.109-0.048-0.148-0.147-0.179-0.255
		c-0.021-0.07-0.042-0.141-0.059-0.213c-0.039-0.159-0.039-0.326-0.094-0.479c-0.016-0.047-0.025-0.09-0.033-0.138
		c-0.019-0.353-0.089-0.694-0.163-1.037c-0.016-0.043-0.025-0.091-0.035-0.136c-0.024-0.14-0.023-0.277-0.033-0.416
		c-0.009-0.094-0.031-0.183-0.057-0.271c-0.029-0.115-0.04-0.233-0.065-0.35c-0.021-0.072-0.043-0.146-0.058-0.221
		c-0.072-0.659-0.265-1.3-0.283-1.966C36.745,30.65,36.929,30.324,37.354,30.286z"/>
	<path display="inline" fill-rule="evenodd" clip-rule="evenodd" fill="#FFCE00" d="M12.383,30.625
		c0.102-0.175,0.276-0.137,0.432-0.137c0.172,0,0.321-0.027,0.399-0.202c0.422,0.038,0.601,0.364,0.79,0.672
		c-0.014,0.669-0.202,1.313-0.278,1.972c-0.015,0.072-0.036,0.146-0.057,0.216c-0.024,0.118-0.037,0.236-0.067,0.351
		c-0.023,0.091-0.049,0.18-0.057,0.271c-0.013,0.143-0.009,0.284-0.034,0.422c-0.008,0.048-0.019,0.096-0.032,0.142
		c-0.079,0.336-0.129,0.672-0.176,1.016c-0.067,0.188-0.054,0.394-0.102,0.589c-0.015,0.077-0.041,0.152-0.06,0.227
		c-0.031,0.111-0.068,0.219-0.176,0.278c-0.235,0.084-0.462,0.109-0.669-0.068c0.209-1.293,0.355-2.601,0.647-3.871
		C13.125,31.709,13.059,31.104,12.383,30.625z"/>
	<path display="inline" fill-rule="evenodd" clip-rule="evenodd" fill="#FFCE00" d="M32.167,15.885
		c-0.184,0.125-0.393,0.096-0.595,0.099c-0.312-0.01-0.299-0.304-0.418-0.478c-0.103-0.148-0.164-0.322-0.262-0.474
		c-0.094-0.142-0.176-0.289-0.253-0.438c-0.469-0.824-0.752-1.74-1.267-2.541c-0.201-0.458-0.506-0.869-0.624-1.364
		c0-0.082,0.023-0.156,0.079-0.219c0.197-0.105,0.402-0.154,0.62-0.067c0.383,0.536,0.626,1.147,0.908,1.733
		C30.96,13.386,31.646,14.594,32.167,15.885z"/>
	<path display="inline" fill-rule="evenodd" clip-rule="evenodd" fill="#FFCE00" d="M29.448,10.402
		c-0.189,0.12-0.401,0.107-0.613,0.104c-0.24-0.08-0.289-0.311-0.385-0.498c-0.471-0.922-0.917-1.856-1.406-2.77
		c-0.054-0.082-0.105-0.165-0.153-0.25c-0.243-0.473-0.481-0.949-0.707-1.431c-0.079-0.164-0.193-0.331,0.021-0.483
		C26.398,5,26.595,4.945,26.8,5.03c0.723,1.217,1.29,2.511,1.915,3.777C28.973,9.331,29.298,9.829,29.448,10.402z"/>
	<path display="inline" fill-rule="evenodd" clip-rule="evenodd" fill="#FFCE00" d="M37.56,36.371c0.236,0,0.475,0,0.713,0
		c0.267,1.493,0.537,2.984,0.803,4.479c0.069,0.397,0.125,0.797,0.188,1.197c-0.17-0.279-0.447-0.187-0.691-0.2
		c-0.302-0.043-0.193-0.322-0.288-0.488c-0.037-0.148-0.041-0.301-0.048-0.45c-0.005-0.096-0.024-0.19-0.048-0.282
		c-0.027-0.113-0.041-0.232-0.062-0.348c-0.019-0.07-0.037-0.144-0.054-0.212c-0.036-0.145-0.033-0.297-0.072-0.444
		c-0.085-0.431-0.135-0.869-0.225-1.301c-0.044-0.173-0.044-0.353-0.103-0.522c-0.034-0.144-0.039-0.294-0.045-0.438
		c-0.008-0.096-0.021-0.185-0.046-0.276c-0.028-0.108-0.036-0.223-0.053-0.334c-0.013-0.065-0.027-0.13-0.036-0.197
		C37.488,36.482,37.503,36.419,37.56,36.371z"/>
	<path display="inline" fill-rule="evenodd" clip-rule="evenodd" fill="#FFCE00" d="M12.296,36.371c0.238,0,0.476,0,0.713,0
		c0.054,0.048,0.067,0.109,0.063,0.18c-0.007,0.063-0.022,0.13-0.035,0.193c-0.015,0.106-0.024,0.216-0.052,0.32
		c-0.023,0.081-0.046,0.168-0.052,0.255c-0.011,0.136-0.007,0.27-0.031,0.404c-0.008,0.045-0.02,0.091-0.032,0.136
		c-0.049,0.162-0.047,0.332-0.088,0.495c-0.083,0.421-0.128,0.849-0.217,1.271c-0.035,0.144-0.031,0.293-0.068,0.437
		c-0.016,0.07-0.036,0.139-0.053,0.209c-0.021,0.114-0.034,0.231-0.062,0.346c-0.024,0.093-0.045,0.187-0.05,0.281
		c-0.009,0.126-0.02,0.25-0.049,0.373c-0.11,0.187,0.052,0.504-0.285,0.575c-0.246,0.014-0.522-0.079-0.692,0.2
		C11.612,40.151,11.904,38.251,12.296,36.371z"/>
	<path display="inline" fill-rule="evenodd" clip-rule="evenodd" fill="#FFCE00" d="M22.042,8.478
		c0.667-1.477,1.394-2.925,2.145-4.362c0.242-0.172,0.469-0.122,0.688,0.046c0.136,0.185,0.042,0.356-0.04,0.518
		c-0.379,0.749-0.677,1.536-1.08,2.274c-0.138,0.232-0.236,0.491-0.414,0.702c-0.264,0.273-0.278,0.729-0.664,0.914
		C22.455,8.617,22.233,8.653,22.042,8.478z"/>
	<path display="inline" fill-rule="evenodd" clip-rule="evenodd" fill="#FFCE00" d="M18.993,16.084
		c-0.235-0.136-0.47-0.138-0.705,0.001c0.636-1.409,1.323-2.792,2.043-4.159c0.237-0.132,0.456-0.031,0.675,0.053
		c0.041,0.034,0.067,0.078,0.078,0.13c-0.273,0.85-0.682,1.642-1.08,2.438c-0.153,0.229-0.305,0.459-0.43,0.706
		C19.342,15.501,19.337,15.912,18.993,16.084z"/>
	<path display="inline" fill-rule="evenodd" clip-rule="evenodd" fill="#FFCE00" d="M24.878,4.217
		c-0.227-0.054-0.451-0.135-0.691-0.102c0.346-0.716,0.691-1.432,1.092-2.261c0.544,1.14,1.124,2.113,1.521,3.175
		c-0.187,0.123-0.396,0.102-0.604,0.1c-0.249,0.033-0.286-0.18-0.379-0.328c-0.186-0.296-0.259-0.653-0.476-0.927
		C25.113,3.914,25.147,4.265,24.878,4.217z"/>
	<path display="inline" fill-rule="evenodd" clip-rule="evenodd" fill="#FFCE00" d="M21.024,12.027
		c-0.239,0.03-0.466-0.034-0.692-0.1c0.57-1.15,1.141-2.299,1.71-3.449c0.234-0.001,0.469-0.001,0.703-0.001
		c0.094,0.258-0.096,0.438-0.187,0.642c-0.197,0.437-0.445,0.85-0.614,1.299c-0.016,0.045-0.037,0.086-0.06,0.126
		c-0.096,0.133-0.14,0.287-0.171,0.446c-0.073,0.274-0.183,0.533-0.327,0.776C21.307,11.9,21.244,12.08,21.024,12.027z"/>
	<path display="inline" fill-rule="evenodd" clip-rule="evenodd" fill="#FFCE00" d="M47.902,20.039
		c-0.462,0.273-0.684,0.831-1.218,1.017c-0.004-0.488,0.532-0.605,0.701-1.026c-1.12-0.164-2.221-0.342-3.335-0.467
		c-0.135-0.019-0.27-0.037-0.344-0.179c-0.014-0.057-0.003-0.108,0.037-0.153c1.144,0.168,2.287,0.331,3.429,0.509
		C47.431,19.781,47.752,19.716,47.902,20.039z"/>
	<path display="inline" fill-rule="evenodd" clip-rule="evenodd" fill="#FFCE00" d="M30.965,14.968
		c0.201,0.339,0.403,0.678,0.607,1.016c0.144,0.508,0.449,0.941,0.658,1.419c0.074,0.164,0.211,0.173,0.365,0.215
		c0.499,0.136,1.033,0.066,1.513,0.292c-0.021,0.019-0.039,0.038-0.058,0.058c-0.616,0.142-1.196-0.048-1.781-0.187
		c-0.194-0.045-0.269-0.244-0.354-0.409c-0.243-0.48-0.482-0.963-0.728-1.442C31.108,15.611,30.745,15.357,30.965,14.968z"/>
	<path display="inline" fill-rule="evenodd" clip-rule="evenodd" fill="#FFCE00" d="M34.819,18.011
		c1.193,0.087,2.378,0.254,3.549,0.509c0.032,0.06,0.019,0.107-0.039,0.142c-1.189-0.07-2.375-0.158-3.514-0.564
		C34.818,18.069,34.818,18.04,34.819,18.011z"/>
	<path display="inline" fill-rule="evenodd" clip-rule="evenodd" fill="#FFCE00" d="M38.368,18.62c0-0.034,0-0.067,0-0.1
		c0.451-0.008,0.895,0.026,1.317,0.205c0.033,0.058,0.019,0.103-0.041,0.131C39.2,18.875,38.762,18.87,38.368,18.62z"/>
	<path display="inline" fill-rule="evenodd" clip-rule="evenodd" fill="#FFCE00" d="M41.815,19.027
		c0.235,0.038,0.497-0.096,0.711,0.101c-0.022,0.08-0.072,0.131-0.154,0.147c-0.227-0.011-0.457,0.01-0.661-0.129
		C41.693,19.06,41.698,18.994,41.815,19.027z"/>
	<path display="inline" fill-rule="evenodd" clip-rule="evenodd" fill="#FFCE00" d="M39.688,18.82c0-0.032,0-0.064-0.003-0.096
		c0.237,0.036,0.497-0.098,0.71,0.101c0.033,0.054,0.024,0.1-0.026,0.136C40.121,19.017,39.89,18.99,39.688,18.82z"/>
	<path display="inline" fill-rule="evenodd" clip-rule="evenodd" fill="#FFCE00" d="M40.396,18.921c0-0.033,0-0.064-0.001-0.096
		c0.235,0.036,0.497-0.096,0.71,0.102c0.034,0.053,0.024,0.099-0.026,0.135C40.831,19.118,40.599,19.091,40.396,18.921z"/>
	<path display="inline" fill-rule="evenodd" clip-rule="evenodd" fill="#FFCE00" d="M41.105,19.023c0-0.032,0-0.063,0-0.096
		c0.236,0.035,0.497-0.097,0.71,0.1c-0.033,0.033-0.067,0.066-0.101,0.098C41.493,19.208,41.288,19.184,41.105,19.023z"/>
	<path display="inline" fill-rule="evenodd" clip-rule="evenodd" fill="#FFCE00" d="M42.425,19.228
		c0.034-0.034,0.066-0.066,0.102-0.1c0.203,0.032,0.431-0.084,0.608,0.101c0.034,0.054,0.025,0.098-0.03,0.132
		C42.864,19.382,42.627,19.402,42.425,19.228z"/>
	<path display="inline" fill-rule="evenodd" clip-rule="evenodd" fill="#FFCE00" d="M34.108,17.91
		c0.237,0.038,0.496-0.094,0.711,0.101v0.001C34.555,18.169,34.297,18.276,34.108,17.91L34.108,17.91z"/>
	<path display="inline" fill-rule="evenodd" clip-rule="evenodd" fill="#FFCE00" d="M43.135,19.328c0-0.032,0-0.066,0-0.1
		c0.204,0.001,0.406,0.002,0.609,0.002c0,0.034,0,0.067,0,0.101C43.541,19.492,43.339,19.502,43.135,19.328z"/>
	<path display="inline" fill-rule="evenodd" clip-rule="evenodd" fill="#FFCE00" d="M3.882,21.056
		c-0.534-0.186-0.756-0.744-1.216-1.016c0.076-0.322,0.38-0.255,0.575-0.286c1.666-0.259,3.334-0.489,5.003-0.727
		c0.033,0.053,0.032,0.105-0.001,0.157c-0.316,0.279-0.727,0.185-1.093,0.269c-0.191,0.044-0.393,0.065-0.588,0.1
		c-1.132,0.13-2.255,0.318-3.395,0.476C3.356,20.44,3.879,20.565,3.882,21.056z"/>
	<path display="inline" fill-rule="evenodd" clip-rule="evenodd" fill="#FFCE00" d="M18.993,16.084
		c0.181-0.298,0.266-0.649,0.509-0.914c0.2,0.291-0.042,0.509-0.121,0.757c-0.257,0.493-0.503,0.992-0.75,1.49
		c-0.122,0.244-0.293,0.412-0.571,0.44c-0.514,0.052-1.015,0.271-1.542,0.111c-0.019-0.019-0.039-0.04-0.058-0.058
		c0.454-0.231,0.965-0.17,1.445-0.277c0.261-0.057,0.408-0.148,0.514-0.384C18.596,16.854,18.8,16.472,18.993,16.084z"/>
	<path display="inline" fill-rule="evenodd" clip-rule="evenodd" fill="#FFCE00" d="M12.098,18.519
		c0.49-0.184,1.014-0.173,1.521-0.245c0.945-0.135,1.881-0.342,2.841-0.363l0,0c-0.002,0.218-0.186,0.222-0.322,0.242
		c-1.28,0.193-2.555,0.426-3.848,0.526C12.191,18.666,12.128,18.611,12.098,18.519z"/>
	<path display="inline" fill-rule="evenodd" clip-rule="evenodd" fill="#FFCE00" d="M12.098,18.519
		c0.034,0.034,0.068,0.067,0.102,0.101c-0.408,0.212-0.829,0.308-1.281,0.157c-0.057-0.041-0.069-0.091-0.038-0.154
		C11.286,18.588,11.691,18.554,12.098,18.519z"/>
	<path display="inline" fill-rule="evenodd" clip-rule="evenodd" fill="#FFCE00" d="M8.649,19.026
		c0.214-0.193,0.473-0.063,0.71-0.101c0.082-0.059,0.159-0.069,0.223,0.024c-0.167,0.303-0.451,0.195-0.704,0.2
		C8.79,19.133,8.708,19.101,8.649,19.026z"/>
	<path display="inline" fill-rule="evenodd" clip-rule="evenodd" fill="#FFCE00" d="M9.561,18.923
		c-0.067,0.001-0.134,0.001-0.202,0.001c0.25-0.202,0.542-0.06,0.812-0.101c0.001,0.027,0.001,0.056,0.002,0.084
		C9.974,19.097,9.77,19.082,9.561,18.923z"/>
	<path display="inline" fill-rule="evenodd" clip-rule="evenodd" fill="#FFCE00" d="M10.88,18.623c0,0.033,0,0.065,0,0.098
		c-0.188,0.368-0.446,0.26-0.709,0.103v0.001C10.369,18.622,10.675,18.798,10.88,18.623z"/>
	<path display="inline" fill-rule="evenodd" clip-rule="evenodd" fill="#FFCE00" d="M8.649,19.026c0.068,0,0.135,0,0.201,0
		c-0.149,0.349-0.375,0.244-0.606,0.1c-0.001-0.033-0.001-0.066,0-0.099C8.379,19.027,8.515,19.026,8.649,19.026z"/>
	<path display="inline" fill-rule="evenodd" clip-rule="evenodd" fill="#FFCE00" d="M12.201,40.835
		c0.001-0.084,0.019-0.161,0.1-0.204c0.089-0.134,0.071-0.271,0.002-0.405c0.033-0.033,0.065-0.068,0.099-0.102
		c0.085-0.169,0.083-0.339,0.002-0.507c0.187-0.419,0.086-0.907,0.303-1.321c0.1,0.036,0.152,0.111,0.176,0.21
		c0.032,0.216,0.158,0.322,0.375,0.331c0.187,0.012,0.372,0.01,0.557,0.012c3.816,0.018,7.63,0.016,11.445,0.014
		c3.917,0,7.833,0.007,11.75-0.019c0.271-0.002,0.606,0.078,0.674-0.343c0.025-0.096,0.08-0.171,0.178-0.205
		c0.218,0.414,0.117,0.902,0.304,1.321c-0.081,0.168-0.082,0.338,0.002,0.507c0.033,0.033,0.067,0.068,0.1,0.102
		c-0.07,0.135-0.088,0.271,0.003,0.405c0.079,0.043,0.097,0.12,0.1,0.204c-0.083,0.2-0.08,0.396,0.006,0.593
		c0.077,0.585,0.026,0.669-0.538,0.674c-2.22,0.021-4.44-0.002-6.66,0.016c-0.198,0.003-0.361-0.062-0.517-0.166
		c-0.336-0.066-0.604-0.279-0.912-0.407c-0.034,0-0.068-0.002-0.1-0.002c-0.208-0.353-0.632-0.378-0.917-0.606
		c-0.369-0.104-0.707-0.273-1.012-0.507c-0.348-0.251-0.765-0.373-1.118-0.609c-0.974-0.734-1.909-0.459-2.835,0.103
		c-0.288,0.2-0.635,0.296-0.915,0.507c-0.305,0.233-0.643,0.402-1.013,0.507c-0.354,0.236-0.77,0.358-1.118,0.608
		c-0.237,0.203-0.51,0.328-0.809,0.407c-0.257,0.171-0.526,0.28-0.849,0.272c-1.973-0.033-3.946-0.009-5.92-0.016
		c-0.101,0-0.203,0-0.304-0.004c-0.613-0.039-0.717-0.165-0.656-0.782C12.242,41.229,12.309,41.035,12.201,40.835z"/>
	<path display="inline" fill-rule="evenodd" clip-rule="evenodd" fill="#FFCE00" d="M26.601,39.819
		c0.405,0.143,0.819,0.268,1.118,0.609C27.315,40.281,26.901,40.155,26.601,39.819z"/>
	<path display="inline" fill-rule="evenodd" clip-rule="evenodd" fill="#FFCE00" d="M20.719,41.544
		c0.298-0.34,0.713-0.468,1.118-0.608c-0.262,0.329-0.683,0.396-1.016,0.608C20.787,41.544,20.753,41.544,20.719,41.544z"/>
	<path display="inline" fill-rule="evenodd" clip-rule="evenodd" fill="#FFCE00" d="M28.73,40.936
		c0.343,0.145,0.769,0.168,0.917,0.606C29.378,41.285,28.958,41.253,28.73,40.936z"/>
	<path display="inline" fill-rule="evenodd" clip-rule="evenodd" fill="#FFCE00" d="M22.85,40.429
		c0.235-0.296,0.575-0.403,0.915-0.507C23.527,40.213,23.188,40.319,22.85,40.429z"/>
	<path display="inline" fill-rule="evenodd" clip-rule="evenodd" fill="#FFCE00" d="M30.659,41.951
		c0.313,0.134,0.627-0.009,0.941-0.009c2.08,0.014,4.158,0.009,6.237,0.005c0.583,0,0.613-0.043,0.429-0.607
		c0.033-0.047,0.068-0.05,0.102,0c0.193,0.118,0.011,0.389,0.203,0.507c0.077,1.064,0.299,2.103,0.506,3.146
		c-0.081,0.168-0.081,0.338,0.002,0.507v-0.003c0.094,0.137,0,0.303,0.058,0.432c0.214,0.457-0.035,0.451-0.362,0.383
		c-0.406-0.236-0.812-0.474-1.219-0.71c-0.226-0.125-0.421-0.322-0.707-0.307c-0.035,0.002-0.068,0.002-0.104,0.002
		c-0.093-0.208-0.307-0.25-0.481-0.339c-0.865-0.44-1.745-0.854-2.561-1.386c-0.296-0.154-0.557-0.39-0.914-0.407
		c-0.53-0.363-1.132-0.594-1.69-0.897C30.938,42.181,30.743,42.143,30.659,41.951z"/>
	<path display="inline" fill-rule="evenodd" clip-rule="evenodd" fill="#FFCE00" d="M38.774,46.312
		c0.662-0.062,0.162-0.558,0.305-0.814c0.162,0.123,0.067,0.318,0.136,0.471c0.066,0.152,0.14,0.359,0.01,0.471
		C39.079,46.561,38.928,46.354,38.774,46.312z"/>
	<path display="inline" fill-rule="evenodd" clip-rule="evenodd" fill="#FFCE00" d="M36.849,45.295
		c0.324-0.106,0.52,0.091,0.707,0.307C37.292,45.565,37.086,45.396,36.849,45.295z"/>
	<path display="inline" fill-rule="evenodd" clip-rule="evenodd" fill="#FFCE00" d="M39.079,45.5
		c-0.151-0.169-0.151-0.339-0.002-0.507C39.079,45.161,39.079,45.331,39.079,45.5z"/>
	<path display="inline" fill-rule="evenodd" clip-rule="evenodd" fill="#FFCE00" d="M12.3,41.34
		c-0.187,0.567-0.099,0.707,0.49,0.707c2.001,0.009,4.001,0,6.003,0.005c0.377,0.004,0.759,0.093,1.118-0.101
		c-0.074,0.175-0.249,0.219-0.396,0.296c-1.782,0.925-3.564,1.848-5.346,2.773c-0.132,0.069-0.286,0.115-0.347,0.276
		c-0.713,0.267-1.38,0.619-2.029,1.015c-0.189-0.019-0.451,0.149-0.505-0.203c0.276-1.414,0.577-2.822,0.709-4.262
		c0.211-0.155-0.011-0.452,0.201-0.609C12.26,41.245,12.262,41.311,12.3,41.34z"/>
	<path display="inline" fill-rule="evenodd" clip-rule="evenodd" fill="#FFCE00" d="M11.288,46.108
		c0.091,0.262,0.366,0.062,0.505,0.203C11.561,46.402,11.241,46.718,11.288,46.108z"/>
	<path display="inline" fill-rule="evenodd" clip-rule="evenodd" fill="#FFCE00" d="M32.789,43.165
		c0.4-0.077,0.659,0.159,0.914,0.407C33.368,43.509,33.097,43.294,32.789,43.165z"/>
	<path display="inline" fill-rule="evenodd" clip-rule="evenodd" fill="#FFCE00" d="M3.882,21.056
		c-0.316-0.344-0.631-0.688-1.034-1.126c1.28-0.173,2.475-0.335,3.671-0.497c0.723,0.041,1.441-0.07,2.163-0.069
		c11.034,0.005,22.067,0.007,33.102-0.001c0.757-0.001,1.506,0.133,2.264,0.071c1.19,0.16,2.377,0.32,3.666,0.493
		c-0.388,0.427-0.709,0.779-1.03,1.13c-0.465,0.548-0.972,1.055-1.52,1.521c-0.256,0.169-0.544,0.166-0.831,0.166
		c-12.744,0.001-25.485,0-38.227,0.002c-0.204,0-0.404-0.021-0.602-0.066C4.923,22.178,4.382,21.637,3.882,21.056z"/>
	<path display="inline" fill-rule="evenodd" clip-rule="evenodd" fill="#FFCE00" d="M42.325,25.417
		c-0.169,0.135-0.341,0.27-0.509,0.405c-0.253,0.169-0.541,0.166-0.83,0.166c-10.511,0.002-21.022,0-31.532,0.002
		c-0.204,0-0.404-0.02-0.602-0.066c-0.203-0.169-0.405-0.338-0.609-0.507c-0.136-0.067-0.237-0.168-0.304-0.303
		c-0.154-0.268-0.41-0.443-0.611-0.667c-0.143-0.159-0.23-0.305,0.022-0.442c0.262-0.094,0.535-0.072,0.804-0.072
		c11.418,0,22.834,0,34.251,0c0.27,0,0.544-0.021,0.805,0.066c0.23,0.116,0.202,0.259,0.049,0.428
		c-0.175,0.196-0.399,0.347-0.528,0.585C42.659,25.209,42.446,25.268,42.325,25.417z"/>
	<path display="inline" fill-rule="evenodd" clip-rule="evenodd" fill="#FFCE00" d="M43.339,24.199
		c-0.151-0.166-0.348-0.098-0.526-0.098c-11.685-0.004-23.372-0.004-35.058,0c-0.177,0-0.375-0.068-0.525,0.098
		c-0.34-0.023-0.446-0.348-0.667-0.523c-0.192-0.152-0.337-0.362-0.553-0.491c-0.206-0.131-0.375-0.299-0.504-0.506
		c0.167-0.176,0.383-0.098,0.576-0.098c13.028-0.004,26.057-0.004,39.084-0.004c-0.13,0.207-0.299,0.376-0.505,0.507
		c-0.356,0.243-0.614,0.593-0.936,0.873C43.611,24.055,43.55,24.251,43.339,24.199z"/>
	<path display="inline" fill-rule="evenodd" clip-rule="evenodd" fill="#FFCE00" d="M43.339,24.199
		c0.291-0.274,0.58-0.55,0.874-0.823c0.131-0.123,0.232-0.295,0.447-0.292c-0.604,0.682-1.247,1.325-1.931,1.928
		C42.77,24.618,43.201,24.519,43.339,24.199z"/>
	<path display="inline" fill-rule="evenodd" clip-rule="evenodd" fill="#FFCE00" d="M6.009,23.184
		c0.539,0.18,0.757,0.744,1.22,1.015c0.16,0.364,0.643,0.478,0.709,0.915C7.255,24.51,6.613,23.867,6.009,23.184z"/>
	<path display="inline" fill-rule="evenodd" clip-rule="evenodd" fill="#FFCE00" d="M8.852,25.923
		c0.185-0.183,0.418-0.098,0.627-0.098c10.778-0.005,21.559-0.004,32.337-0.004c-0.361,0.448-0.77,0.852-1.214,1.218
		c-0.653,0.562-1.262,1.173-1.828,1.825c-0.369,0.578-1.051,0.843-1.421,1.421c-0.234,0.2-0.471,0.404-0.708,0.604
		c-0.102,0.118,0,0.339-0.209,0.399c-0.242,0.094-0.498,0.071-0.751,0.071c-6.934,0-13.868,0-20.801,0
		c-0.251,0-0.507,0.022-0.751-0.066c-0.209-0.061-0.111-0.284-0.212-0.404c-0.237-0.2-0.472-0.404-0.707-0.604
		c-0.368-0.578-1.051-0.843-1.42-1.421c-0.564-0.654-1.174-1.263-1.829-1.825C9.554,26.706,9.181,26.337,8.852,25.923z"/>
	<path display="inline" fill-rule="evenodd" clip-rule="evenodd" fill="#FFCE00" d="M9.965,27.04
		c0.627,0.28,0.973,0.878,1.458,1.318c0.147,0.134,0.423,0.214,0.371,0.507C11.144,28.297,10.535,27.688,9.965,27.04z"/>
	<path display="inline" fill-rule="evenodd" clip-rule="evenodd" fill="#FFCE00" d="M38.774,28.865
		c-0.102-0.093-0.01-0.149,0.047-0.197c0.612-0.522,1.045-1.243,1.781-1.628C40.032,27.688,39.423,28.297,38.774,28.865z"/>
	<path display="inline" fill-rule="evenodd" clip-rule="evenodd" fill="#FFCE00" d="M37.76,38.398
		c0.185,0.564,0.153,0.609-0.428,0.609c-3.816,0-7.633,0-11.449,0c-4.215,0-8.431,0-12.646,0c-0.583,0-0.613-0.045-0.428-0.609
		c-0.078-0.202-0.077-0.407,0-0.609l0,0c0.083-0.168,0.083-0.334,0-0.505c0.002-0.084,0.019-0.159,0.1-0.204
		c0.089-0.134,0.072-0.268,0.002-0.404c0.032-0.035,0.066-0.068,0.098-0.103c0.084-0.168,0.084-0.336,0.003-0.507
		c0.033-0.032,0.065-0.065,0.099-0.101c0.124-0.165-0.009-0.375,0.098-0.545c0.088-0.116,0.053-0.252,0.057-0.38
		c0.006-0.163,0.067-0.252,0.243-0.216c0.3,0.061,0.604,0.063,0.908,0.063c7.247,0,14.491-0.003,21.738,0
		c0.303,0,0.607-0.003,0.907-0.066c0.171-0.031,0.23,0.053,0.24,0.212c0.007,0.141-0.043,0.291,0.051,0.425v-0.002
		c0.119,0.152-0.024,0.359,0.105,0.509c0.029,0.035,0.064,0.068,0.096,0.101c-0.079,0.171-0.082,0.339,0.003,0.507
		c0.033,0.034,0.066,0.067,0.101,0.103c-0.071,0.137-0.09,0.271,0,0.404c0.083,0.045,0.098,0.12,0.102,0.204
		c-0.099,0.167-0.044,0.342-0.035,0.52C37.842,37.994,37.836,38.194,37.76,38.398z"/>
	<path display="inline" fill-rule="evenodd" clip-rule="evenodd" fill="#FFCE00" d="M37.15,34.851
		c-0.082,0.332-0.354,0.195-0.544,0.195c-3.563,0.009-7.126,0.007-10.69,0.007c-3.984,0-7.97,0-11.956-0.007
		c-0.19,0-0.462,0.137-0.545-0.195c-0.081-0.205-0.074-0.407,0-0.609l0,0c0.083-0.17,0.083-0.339,0.001-0.507
		c0.001-0.084,0.019-0.162,0.099-0.205c0.09-0.134,0.073-0.27,0.002-0.404c0.034-0.034,0.065-0.068,0.099-0.103
		c0.098-0.511,0.201-1.021,0.254-1.537c0.013-0.124,0.039-0.227,0.154-0.287c7.505,0,15.011,0,22.516,0
		c0.259,0.256,0.16,0.613,0.241,0.918c0.075,0.295,0.114,0.604,0.167,0.906c0.032,0.034,0.064,0.068,0.099,0.103
		c-0.069,0.135-0.088,0.271,0.001,0.404c0.083,0.043,0.1,0.121,0.101,0.205c-0.083,0.168-0.083,0.337,0,0.507l0,0
		C37.225,34.443,37.233,34.646,37.15,34.851z"/>
	<path display="inline" fill-rule="evenodd" clip-rule="evenodd" fill="#FFCE00" d="M36.95,33.022
		c-0.275-0.577-0.188-1.236-0.408-1.824c0.006-0.112-0.02-0.235,0.104-0.308C36.727,31.606,36.944,32.3,36.95,33.022z"/>
	<path display="inline" fill-rule="evenodd" clip-rule="evenodd" fill="#FFCE00" d="M37.15,34.851c0-0.205,0-0.407,0-0.609
		c0.19,0.384,0.212,0.798,0.203,1.218C37.14,35.305,37.366,35.002,37.15,34.851z"/>
	<path display="inline" fill-rule="evenodd" clip-rule="evenodd" fill="#FFCE00" d="M37.05,33.529
		c-0.206-0.134-0.105-0.27-0.001-0.404C37.049,33.26,37.05,33.396,37.05,33.529z"/>
	<path display="inline" fill-rule="evenodd" clip-rule="evenodd" fill="#FFCE00" d="M37.15,34.241c-0.149-0.17-0.149-0.339,0-0.507
		C37.15,33.902,37.15,34.071,37.15,34.241z"/>
	<path display="inline" fill-rule="evenodd" clip-rule="evenodd" fill="#FFCE00" d="M37.558,36.573
		c-0.151-0.168-0.15-0.336-0.003-0.507c0.001,0.103,0.003,0.202,0.005,0.305C37.558,36.438,37.558,36.505,37.558,36.573z"/>
	<path display="inline" fill-rule="evenodd" clip-rule="evenodd" fill="#FFCE00" d="M37.459,35.966
		c-0.173-0.14-0.079-0.338-0.105-0.509C37.523,35.601,37.43,35.794,37.459,35.966z"/>
	<path display="inline" fill-rule="evenodd" clip-rule="evenodd" fill="#FFCE00" d="M14.026,31.198
		c-0.221,0.588-0.134,1.247-0.408,1.824c0.006-0.723,0.224-1.416,0.303-2.132C14.045,30.963,14.021,31.086,14.026,31.198z"/>
	<path display="inline" fill-rule="evenodd" clip-rule="evenodd" fill="#FFCE00" d="M13.416,34.241c0,0.202,0,0.404,0,0.609
		c-0.214,0.151,0.012,0.454-0.202,0.608c-0.027-0.025-0.038-0.047-0.028-0.069c0.009-0.023,0.019-0.035,0.028-0.035
		C13.207,34.969,13.244,34.591,13.416,34.241z"/>
	<path display="inline" fill-rule="evenodd" clip-rule="evenodd" fill="#FFCE00" d="M13.214,35.354c0,0.035,0,0.068,0,0.104
		c-0.025,0.169,0.069,0.367-0.103,0.507C13.145,35.762,13.031,35.532,13.214,35.354z"/>
	<path display="inline" fill-rule="evenodd" clip-rule="evenodd" fill="#FFCE00" d="M13.519,33.125
		c0.118,0.135,0.2,0.271-0.002,0.404C13.517,33.396,13.518,33.26,13.519,33.125z"/>
	<path display="inline" fill-rule="evenodd" clip-rule="evenodd" fill="#FFCE00" d="M13.417,33.734
		c0.149,0.168,0.149,0.337-0.001,0.507C13.416,34.071,13.416,33.902,13.417,33.734z"/>
	<path display="inline" fill-rule="evenodd" clip-rule="evenodd" fill="#FFCE00" d="M13.013,36.066
		c0.148,0.171,0.149,0.339-0.003,0.507c0-0.068,0-0.136,0-0.202C13.009,36.269,13.011,36.169,13.013,36.066z"/>
	<path display="inline" fill-rule="evenodd" clip-rule="evenodd" fill="#FFCE00" d="M19.909,14.563c0.148,0.166,0.346,0.1,0.522,0.1
		c3.248,0.003,6.497,0.002,9.744,0.003c0.201,0,0.403,0.011,0.587-0.103c0.067,0.135,0.133,0.27,0.203,0.405
		c-0.032,0.35,0.273,0.585,0.304,0.913c-0.065,0.307-0.327,0.248-0.525,0.258c-0.488,0.027-0.978,0.01-1.465,0.01
		c-3.068,0.001-6.134,0.006-9.201-0.007c-0.271-0.001-0.625,0.138-0.779-0.26c0.014-0.251,0.245-0.441,0.203-0.709
		C19.613,14.952,19.695,14.713,19.909,14.563z"/>
	<path display="inline" fill-rule="evenodd" clip-rule="evenodd" fill="#FFCE00" d="M28.835,10.709
		c-0.372-0.677-0.745-1.354-1.116-2.03c-0.316-0.461-0.732-0.883-0.61-1.521c0.652,1.077,1.139,2.238,1.727,3.348
		C28.835,10.573,28.835,10.641,28.835,10.709z"/>
	<path display="inline" fill-rule="evenodd" clip-rule="evenodd" fill="#FFCE00" d="M37.76,38.398
		c0.003-0.209,0.021-0.42-0.102-0.609c0.033-0.05,0.067-0.05,0.102,0c0.169,0.142,0.076,0.337,0.101,0.507
		C37.828,38.33,37.793,38.364,37.76,38.398z"/>
	<path display="inline" fill-rule="evenodd" clip-rule="evenodd" fill="#FFCE00" d="M37.76,37.789c-0.034,0-0.068,0-0.102,0
		c0.024-0.168-0.067-0.363,0.102-0.505C37.76,37.452,37.76,37.621,37.76,37.789z"/>
	<path display="inline" fill-rule="evenodd" clip-rule="evenodd" fill="#FFCE00" d="M38.269,40.631
		c-0.208-0.134-0.107-0.271-0.002-0.405C38.267,40.36,38.267,40.497,38.269,40.631z"/>
	<path display="inline" fill-rule="evenodd" clip-rule="evenodd" fill="#FFCE00" d="M38.368,41.34c-0.033,0-0.068,0-0.102,0
		c0.025-0.171-0.067-0.363,0.102-0.505C38.368,41.004,38.368,41.172,38.368,41.34z"/>
	<path display="inline" fill-rule="evenodd" clip-rule="evenodd" fill="#FFCE00" d="M37.658,37.08c-0.207-0.134-0.104-0.268,0-0.404
		C37.658,36.81,37.658,36.946,37.658,37.08z"/>
	<path display="inline" fill-rule="evenodd" clip-rule="evenodd" fill="#FFCE00" d="M38.166,40.124
		c-0.151-0.169-0.151-0.337,0-0.507C38.166,39.785,38.166,39.955,38.166,40.124z"/>
	<path display="inline" fill-rule="evenodd" clip-rule="evenodd" fill="#FFCE00" d="M12.808,37.789c0,0.202,0,0.407,0,0.609
		c-0.035-0.034-0.068-0.068-0.102-0.103C12.731,38.126,12.64,37.931,12.808,37.789z"/>
	<path display="inline" fill-rule="evenodd" clip-rule="evenodd" fill="#FFCE00" d="M12.302,40.226
		c0.118,0.135,0.197,0.271-0.002,0.405C12.3,40.497,12.301,40.36,12.302,40.226z"/>
	<path display="inline" fill-rule="evenodd" clip-rule="evenodd" fill="#FFCE00" d="M12.403,39.617
		c0.148,0.17,0.15,0.338-0.002,0.507C12.401,39.955,12.403,39.785,12.403,39.617z"/>
	<path display="inline" fill-rule="evenodd" clip-rule="evenodd" fill="#FFCE00" d="M12.809,37.284c0.15,0.171,0.15,0.337,0,0.505
		C12.808,37.621,12.809,37.452,12.809,37.284z"/>
	<path display="inline" fill-rule="evenodd" clip-rule="evenodd" fill="#FFCE00" d="M12.3,41.34
		c-0.033-0.034-0.068-0.068-0.102-0.103c0.001-0.134,0.002-0.269,0.002-0.402C12.368,40.977,12.277,41.169,12.3,41.34z"/>
	<path display="inline" fill-rule="evenodd" clip-rule="evenodd" fill="#FFCE00" d="M12.911,36.676
		c0.124,0.137,0.193,0.271-0.002,0.404C12.909,36.946,12.91,36.81,12.911,36.676z"/>
	<path display="inline" fill-rule="evenodd" clip-rule="evenodd" fill="#FFCE00" d="M23.256,7.565
		c0.011,0.424-0.354,0.712-0.408,1.114c-0.337,0.609-0.675,1.218-1.014,1.827c0.148-0.747,0.632-1.342,0.911-2.03
		C22.928,8.179,23.012,7.828,23.256,7.565z"/>
	<path display="inline" fill-rule="evenodd" clip-rule="evenodd" fill="#FFCE00" d="M21.834,10.506
		c-0.014,0.161-0.071,0.303-0.202,0.408C21.622,10.739,21.649,10.583,21.834,10.506z"/>
	<path display="inline" fill-rule="evenodd" clip-rule="evenodd" fill="#FFCE00" d="M19.299,15.88c0.148,0.167,0.347,0.1,0.524,0.1
		c3.641,0.004,7.282,0.004,10.922,0c0.179,0,0.375,0.067,0.523-0.1c0.34,0.464,0.534,1.007,0.801,1.511
		c0.103,0.192,0.209,0.3,0.446,0.333c0.531,0.073,1.054,0.197,1.593,0.186c0.213,0.195,0.475,0.063,0.711,0.102
		c0.733,0.238,1.503,0.272,2.259,0.404c0.43,0.075,0.859,0.137,1.29,0.204c0.445,0.034,0.89,0.075,1.32,0.201
		c0.245-0.028,0.476,0.048,0.708,0.101c0.247-0.027,0.477,0.047,0.709,0.102c0.209,0.003,0.421-0.017,0.609,0.102
		c0.241,0.011,0.488-0.036,0.71,0.103c0.24,0.009,0.488-0.037,0.71,0.101c0.204,0.002,0.406,0.002,0.609,0.003
		c0.074,0.119,0.193,0.096,0.305,0.102c-0.152,0.165-0.352,0.098-0.527,0.098c-12.158,0.002-24.316,0.002-36.475,0
		c-0.178,0-0.376,0.066-0.526-0.098c0.562-0.171,1.166-0.109,1.724-0.307c0.203-0.031,0.43,0.084,0.606-0.1
		c0.237-0.04,0.497,0.093,0.71-0.103c0.204-0.031,0.433,0.084,0.61-0.101c0.236-0.039,0.496,0.096,0.709-0.103
		c0.448,0.066,0.874-0.145,1.319-0.101c0.87-0.136,1.741-0.259,2.608-0.409c0.551-0.095,1.123-0.084,1.651-0.3
		c0.575,0.018,1.129-0.126,1.692-0.198c0.214-0.026,0.263-0.178,0.343-0.322C18.773,16.891,18.958,16.345,19.299,15.88z"/>
</g>
<polygon fill-rule="evenodd" clip-rule="evenodd" fill="#FFCE00" points="25.278,1.854 32.68,16.851 49.543,19.563 37.551,31.317 
	40.334,48.146 25.629,40.396 10.236,48.141 13.034,31.216 0.961,19.531 17.917,17.075 "/>
</svg>
