<?xml version="1.0" encoding="utf-8"?>
<!-- Generator: Adobe Illustrator 16.0.0, SVG Export Plug-In . SVG Version: 6.00 Build 0)  -->
<!DOCTYPE svg PUBLIC "-//W3C//DTD SVG 1.1//EN" "http://www.w3.org/Graphics/SVG/1.1/DTD/svg11.dtd">
<svg version="1.1" id="Layer_1" xmlns="http://www.w3.org/2000/svg" xmlns:xlink="http://www.w3.org/1999/xlink" x="0px" y="0px"
	 width="50px" height="50px" viewBox="0 0 50 50" enable-background="new 0 0 50 50" xml:space="preserve">
<rect fill="#007EBB" width="50" height="50"/>
<g id="_x34__stroke">
	<g id="LinkedIn">
		<path id="LinkedIn_1_" fill="#F5FAFC" d="M7.698,19.342h7.958V44.56H7.698V19.342z M11.474,16.188h-0.058
			c-2.881,0-4.749-1.928-4.749-4.372c0-2.491,1.923-4.378,4.862-4.378c2.936,0,4.741,1.882,4.799,4.372
			C16.329,14.253,14.465,16.188,11.474,16.188z M47.5,44.56h-9.024V31.509c0-3.414-1.411-5.747-4.516-5.747
			c-2.375,0-3.694,1.574-4.311,3.089c-0.229,0.544-0.194,1.304-0.194,2.062v13.646h-8.94c0,0,0.115-23.115,0-25.216h8.94v3.957
			c0.529-1.73,3.386-4.2,7.944-4.2c5.657,0,10.101,3.627,10.101,11.438V44.56L47.5,44.56z"/>
	</g>
</g>
</svg>
