<?xml version="1.0" encoding="utf-8"?>
<!-- Generator: Adobe Illustrator 16.0.0, SVG Export Plug-In . SVG Version: 6.00 Build 0)  -->
<!DOCTYPE svg PUBLIC "-//W3C//DTD SVG 1.1//EN" "http://www.w3.org/Graphics/SVG/1.1/DTD/svg11.dtd">
<svg version="1.1" id="Layer_1" xmlns="http://www.w3.org/2000/svg" xmlns:xlink="http://www.w3.org/1999/xlink" x="0px" y="0px"
	 width="50px" height="50px" viewBox="0 0 50 50" enable-background="new 0 0 50 50" xml:space="preserve">
<rect fill-rule="evenodd" clip-rule="evenodd" fill="#FFFFFF" width="50" height="50"/>
<path fill-rule="evenodd" clip-rule="evenodd" fill="#1DA0F1" d="M10.41,10.986c0.794,0.964,1.618,1.831,2.516,2.628
	c3.216,2.856,6.943,4.674,11.17,5.467c0.888,0.166,1.785,0.257,2.686,0.332c0.22,0.018,0.27-0.032,0.222-0.257
	c-0.92-4.355,2.087-8.78,6.474-9.506c2.761-0.457,5.16,0.298,7.17,2.256c0.113,0.111,0.207,0.149,0.371,0.114
	c1.627-0.348,3.166-0.927,4.617-1.745c0.081-0.046,0.165-0.089,0.296-0.159c-0.646,1.895-1.788,3.328-3.414,4.401
	c0.767-0.052,1.509-0.217,2.241-0.415c0.73-0.197,1.444-0.45,2.168-0.766c0.005,0.147-0.085,0.219-0.14,0.297
	c-1.001,1.423-2.202,2.655-3.596,3.694c-0.138,0.102-0.191,0.2-0.188,0.374c0.123,5.986-1.75,11.29-5.561,15.882
	c-3.14,3.782-7.154,6.198-11.95,7.299c-2.05,0.471-4.13,0.659-6.229,0.58c-4.104-0.153-7.906-1.317-11.395-3.491
	c-0.022-0.014-0.041-0.033-0.129-0.103c2.169,0.197,4.242,0.063,6.278-0.517c2.035-0.576,3.881-1.511,5.569-2.813
	c-3.683-0.301-6.165-2.155-7.533-5.633c0.652,0.11,1.241,0.15,1.833,0.133c0.587-0.016,1.163-0.094,1.801-0.27
	c-2.478-0.604-4.309-1.96-5.498-4.148c-0.641-1.182-1.042-2.927-0.901-3.848c0.55,0.289,1.115,0.528,1.709,0.694
	c0.596,0.167,1.203,0.259,1.889,0.288c-1.749-1.25-2.891-2.859-3.359-4.915C9.061,14.789,9.381,12.853,10.41,10.986z"/>
</svg>
