<?xml version="1.0" encoding="utf-8"?>
<!-- Generator: Adobe Illustrator 16.0.0, SVG Export Plug-In . SVG Version: 6.00 Build 0)  -->
<!DOCTYPE svg PUBLIC "-//W3C//DTD SVG 1.1//EN" "http://www.w3.org/Graphics/SVG/1.1/DTD/svg11.dtd">
<svg version="1.1" id="Layer_1" xmlns="http://www.w3.org/2000/svg" xmlns:xlink="http://www.w3.org/1999/xlink" x="0px" y="0px"
	 width="100px" height="100px" viewBox="0 0 100 100" enable-background="new 0 0 100 100" xml:space="preserve">
<path fill="#2F0C35" d="M40.541,7c1.979,0.375,3.981,0.648,5.931,1.14c21.77,5.48,32.055,30.067,20.709,49.458
	c-0.264,0.451-0.521,0.908-0.873,1.523c0.524,0.557,1.066,1.16,1.639,1.732c8.429,8.433,16.863,16.858,25.291,25.291
	c2.35,2.35,2.341,3.35-0.049,5.771c-1.211,1.229-2.416,2.463-3.662,3.654c-2.014,1.924-3.141,1.904-5.127-0.081
	C75.697,86.8,67.006,78.102,58.309,69.408c-0.314-0.315-0.646-0.614-0.666-0.633c-4.276,1.559-8.211,3.477-12.367,4.42
	c-18.43,4.188-36.84-8.471-39.835-27.129c-0.094-0.583-0.294-1.149-0.444-1.723c0-2.55,0-5.1,0-7.649
	c0.138-0.415,0.337-0.821,0.404-1.247C7.49,22.06,17.435,11.222,30.584,8.065c1.8-0.433,3.638-0.714,5.458-1.065
	C37.541,7,39.041,7,40.541,7z M62.748,40.488c-0.066-13.442-10.982-24.315-24.369-24.274C24.9,16.257,13.913,27.345,14.039,40.78
	c0.124,13.343,11.229,24.296,24.522,24.191C51.959,64.863,62.814,53.875,62.748,40.488z"/>
</svg>
