<?xml version="1.0" encoding="utf-8"?>
<!-- Generator: Adobe Illustrator 16.0.0, SVG Export Plug-In . SVG Version: 6.00 Build 0)  -->
<!DOCTYPE svg PUBLIC "-//W3C//DTD SVG 1.1//EN" "http://www.w3.org/Graphics/SVG/1.1/DTD/svg11.dtd">
<svg version="1.1" id="Layer_1" xmlns="http://www.w3.org/2000/svg" xmlns:xlink="http://www.w3.org/1999/xlink" x="0px" y="0px"
	 width="500px" height="50px" viewBox="0 0 500 50" enable-background="new 0 0 500 50" xml:space="preserve">
<path fill="#C1272D" d="M33.378,26.912v7.144h16.769c0.382,0,0.675-0.089,0.878-0.268s0.369-0.497,0.497-0.955h0.611v6.742h-0.611
	c-0.127-0.459-0.293-0.777-0.497-0.955c-0.204-0.179-0.497-0.268-0.878-0.268H26.464v-0.611c0.458-0.127,0.776-0.293,0.955-0.496
	c0.178-0.204,0.267-0.503,0.267-0.898V14.288c0-0.395-0.089-0.694-0.267-0.898c-0.179-0.203-0.497-0.369-0.955-0.497v-0.611h23.224
	c0.382,0,0.675-0.091,0.879-0.272c0.203-0.182,0.369-0.499,0.497-0.95h0.611v6.742h-0.611c-0.127-0.453-0.293-0.77-0.497-0.951
	c-0.204-0.181-0.497-0.272-0.879-0.272h-16.31v6.188h10.581c0.382,0,0.675-0.089,0.878-0.268s0.369-0.497,0.497-0.955h0.611v6.589
	h-0.611c-0.127-0.445-0.293-0.761-0.497-0.945s-0.497-0.277-0.878-0.277H33.378z"/>
<path d="M62.045,34.476H74.02c0.407,0,0.713-0.088,0.917-0.264c0.203-0.175,0.375-0.495,0.516-0.959h0.516v6.322h-0.516
	c-0.127-0.459-0.296-0.777-0.506-0.955c-0.21-0.179-0.519-0.268-0.926-0.268H55.704v-0.535c0.446-0.114,0.761-0.279,0.945-0.496
	s0.277-0.522,0.277-0.917V18.91c0-0.395-0.089-0.694-0.268-0.897c-0.179-0.204-0.497-0.375-0.955-0.516v-0.535h7.563v0.535
	c-0.458,0.127-0.777,0.296-0.955,0.506c-0.179,0.21-0.268,0.513-0.268,0.907V34.476z"/>
<path d="M84.505,29.262v5.214h13.58c0.395,0,0.697-0.088,0.907-0.264c0.21-0.175,0.378-0.495,0.506-0.959h0.535v6.322h-0.535
	c-0.115-0.446-0.28-0.762-0.497-0.945c-0.217-0.186-0.522-0.277-0.917-0.277h-19.92v-0.535c0.446-0.114,0.761-0.279,0.945-0.496
	s0.277-0.522,0.277-0.917V18.91c0-0.395-0.089-0.694-0.268-0.897c-0.179-0.204-0.497-0.375-0.955-0.516v-0.535h19.328
	c0.407,0,0.716-0.089,0.926-0.268c0.21-0.178,0.379-0.497,0.506-0.955h0.516v6.322h-0.516c-0.127-0.463-0.296-0.784-0.506-0.959
	s-0.519-0.263-0.926-0.263H84.505v4.698h8.06c0.395,0,0.697-0.089,0.907-0.267c0.21-0.178,0.385-0.497,0.525-0.955h0.516v6.169
	h-0.516c-0.127-0.451-0.296-0.769-0.506-0.95c-0.21-0.182-0.519-0.272-0.926-0.272H84.505z"/>
<path d="M124.174,30.675l3.228,4.718l-0.439,0.324c-0.306-0.216-0.547-0.324-0.726-0.324c-0.217,0-0.72,0.235-1.509,0.706
	c-1.745,1.02-3.285,1.726-4.622,2.12s-2.877,0.592-4.622,0.592c-3.489,0-6.335-0.833-8.538-2.502
	c-1.248-0.954-2.241-2.151-2.979-3.59c-0.79-1.554-1.184-3.24-1.184-5.062c0-2.508,0.726-4.724,2.177-6.646
	c2.279-3.005,5.774-4.507,10.485-4.507c1.745,0,3.295,0.198,4.651,0.592s2.899,1.101,4.631,2.12
	c0.789,0.471,1.292,0.707,1.509,0.707c0.178,0,0.42-0.108,0.726-0.324l0.439,0.344l-3.228,4.679l-0.42-0.304
	c0.013-0.152,0.025-0.247,0.038-0.285c0.013-0.114,0.019-0.197,0.019-0.247c0-0.621-0.859-1.324-2.578-2.11
	c-1.63-0.748-3.272-1.122-4.928-1.122c-2.317,0-4.227,0.61-5.729,1.829c-1.719,1.372-2.578,3.13-2.578,5.276
	c0,2.159,0.859,3.924,2.578,5.295c1.515,1.207,3.425,1.81,5.729,1.81c1.808,0,3.61-0.451,5.405-1.355
	c1.4-0.713,2.101-1.338,2.101-1.872c0-0.025-0.019-0.204-0.057-0.534L124.174,30.675z"/>
<path d="M142.317,20.839v15.548c0,0.395,0.089,0.696,0.268,0.906c0.178,0.21,0.497,0.385,0.955,0.524v0.535h-7.563v-0.535
	c0.445-0.114,0.761-0.279,0.945-0.496s0.277-0.522,0.277-0.917V20.839h-6.302c-0.408,0-0.716,0.091-0.927,0.273
	c-0.21,0.182-0.379,0.498-0.506,0.949h-0.516v-6.322h0.516c0.115,0.446,0.277,0.761,0.487,0.946s0.519,0.277,0.927,0.277h17.74
	c0.408,0,0.717-0.089,0.927-0.268c0.21-0.178,0.379-0.497,0.506-0.955h0.516v6.322h-0.516c-0.127-0.451-0.296-0.768-0.506-0.949
	c-0.21-0.182-0.519-0.273-0.926-0.273H142.317z"/>
<path d="M164.749,16.503c3.402,0,6.237,0.866,8.505,2.598c2.714,2.088,4.071,4.998,4.071,8.728c0,3.501-1.357,6.296-4.071,8.385
	c-2.243,1.731-5.065,2.597-8.467,2.597c-3.402,0-6.225-0.865-8.467-2.597c-2.727-2.089-4.09-4.94-4.09-8.557
	c0-3.654,1.363-6.506,4.09-8.556C158.575,17.408,161.385,16.542,164.749,16.503z M164.768,20.552c-2.206,0-4.003,0.707-5.393,2.12
	c-1.288,1.324-1.931,2.986-1.931,4.985c0,1.986,0.644,3.642,1.931,4.966c1.39,1.426,3.194,2.139,5.412,2.139
	c2.206,0,4.003-0.713,5.393-2.139c1.288-1.312,1.932-2.936,1.932-4.871c0-2.1-0.644-3.793-1.932-5.08
	C168.778,21.285,166.974,20.578,164.768,20.552z"/>
<path d="M186.474,24.257v12.13c0,0.394,0.093,0.699,0.277,0.915c0.185,0.217,0.499,0.388,0.945,0.515v0.535h-7.105v-0.535
	c0.446-0.114,0.762-0.279,0.946-0.496s0.276-0.522,0.276-0.917V18.91c0-0.395-0.089-0.694-0.268-0.897
	c-0.178-0.204-0.496-0.375-0.955-0.516v-0.535h8.216v0.535c-0.561,0.14-0.841,0.389-0.841,0.745c0,0.306,0.204,0.663,0.612,1.07
	l11.475,11.382V18.91c0-0.395-0.089-0.697-0.267-0.907c-0.179-0.21-0.497-0.378-0.955-0.506v-0.535h7.104v0.535
	c-0.458,0.127-0.776,0.296-0.955,0.505c-0.179,0.21-0.268,0.512-0.268,0.907v17.478c0,0.395,0.089,0.696,0.268,0.906
	s0.497,0.385,0.955,0.524v0.535h-7.661v-0.535c0.561-0.113,0.841-0.347,0.841-0.7c0-0.177-0.077-0.36-0.229-0.55
	c-0.153-0.189-0.503-0.563-1.051-1.118L186.474,24.257z"/>
<path d="M216.021,18.909v17.478c0,0.395,0.089,0.696,0.267,0.906c0.179,0.21,0.497,0.385,0.955,0.524v0.535h-7.563v-0.535
	c0.445-0.114,0.761-0.279,0.945-0.496s0.276-0.522,0.276-0.917V18.91c0-0.395-0.089-0.694-0.268-0.897
	c-0.178-0.204-0.496-0.375-0.954-0.516v-0.535h7.563v0.535c-0.458,0.127-0.776,0.296-0.955,0.505
	C216.11,18.212,216.021,18.514,216.021,18.909z"/>
<path d="M241.918,30.675l3.228,4.718l-0.439,0.324c-0.306-0.216-0.548-0.324-0.726-0.324c-0.217,0-0.72,0.235-1.509,0.706
	c-1.744,1.02-3.285,1.726-4.622,2.12s-2.878,0.592-4.622,0.592c-3.488,0-6.334-0.833-8.537-2.502
	c-1.248-0.954-2.241-2.151-2.979-3.59c-0.789-1.554-1.184-3.24-1.184-5.062c0-2.508,0.726-4.724,2.177-6.646
	c2.279-3.005,5.774-4.507,10.485-4.507c1.744,0,3.295,0.198,4.65,0.592c1.356,0.395,2.9,1.101,4.632,2.12
	c0.789,0.471,1.292,0.707,1.509,0.707c0.178,0,0.42-0.108,0.726-0.324l0.439,0.344l-3.228,4.679l-0.42-0.304
	c0.012-0.152,0.025-0.247,0.038-0.285c0.012-0.114,0.019-0.197,0.019-0.247c0-0.621-0.859-1.324-2.578-2.11
	c-1.63-0.748-3.272-1.122-4.928-1.122c-2.317,0-4.228,0.61-5.729,1.829c-1.719,1.372-2.578,3.13-2.578,5.276
	c0,2.159,0.859,3.924,2.578,5.295c1.515,1.207,3.425,1.81,5.729,1.81c1.808,0,3.61-0.451,5.405-1.355
	c1.4-0.713,2.101-1.338,2.101-1.872c0-0.025-0.019-0.204-0.057-0.534L241.918,30.675z"/>
<path fill="#C1272D" d="M297.771,15.49l-3.113,6.138l-0.533-0.306c0.012-0.127,0.018-0.229,0.018-0.306
	c0-0.433-0.369-0.897-1.107-1.394c-2.266-1.579-4.928-2.368-7.982-2.368c-1.35,0-2.541,0.165-3.572,0.496
	c-0.752,0.255-1.359,0.636-1.824,1.145s-0.697,1.062-0.697,1.66c0,0.979,0.594,1.647,1.777,2.003
	c0.611,0.178,1.922,0.369,3.934,0.572l2.998,0.305c1.783,0.191,3.225,0.452,4.326,0.783c1.102,0.331,2.08,0.795,2.932,1.393
	c0.867,0.623,1.551,1.444,2.055,2.462c0.502,1.018,0.754,2.105,0.754,3.264c0,1.832-0.592,3.461-1.777,4.885
	c-1.068,1.298-2.73,2.259-4.984,2.882c-1.68,0.471-3.482,0.706-5.404,0.706c-3.451,0-6.857-0.827-10.219-2.482
	c-0.713-0.331-1.139-0.497-1.279-0.497c-0.166,0-0.426,0.141-0.783,0.421l-0.553-0.287l2.826-6.398l0.553,0.268
	c0,0.115,0,0.198,0,0.248c0,0.574,0.275,1.102,0.822,1.586c0.828,0.738,2.107,1.375,3.838,1.91c1.732,0.534,3.375,0.802,4.928,0.802
	c1.693,0,3.139-0.286,4.336-0.857c0.662-0.317,1.191-0.74,1.586-1.269c0.395-0.526,0.592-1.076,0.592-1.648
	c0-0.863-0.465-1.48-1.395-1.85c-0.65-0.254-1.961-0.488-3.934-0.705l-2.941-0.305c-1.975-0.203-3.369-0.398-4.184-0.582
	c-0.814-0.186-1.629-0.481-2.445-0.89c-1.158-0.573-2.068-1.433-2.73-2.58c-0.598-1.032-0.896-2.217-0.896-3.556
	c0-2.204,0.756-4.026,2.271-5.466c1.986-1.898,4.967-2.848,8.939-2.848c1.668,0,3.221,0.169,4.66,0.508
	c1.438,0.339,3.232,0.962,5.385,1.87c0.738,0.294,1.191,0.441,1.355,0.441c0.268,0,0.58-0.147,0.938-0.441L297.771,15.49z"/>
<path d="M319.505,30.031H307.55v7.354c0,0.395,0.09,0.696,0.268,0.907c0.178,0.21,0.496,0.385,0.955,0.524v0.535h-7.563v-0.535
	c0.445-0.114,0.76-0.279,0.945-0.496c0.184-0.217,0.275-0.522,0.275-0.917V19.909c0-0.395-0.088-0.694-0.268-0.897
	c-0.178-0.204-0.496-0.375-0.953-0.516v-0.535h7.563v0.535c-0.459,0.127-0.777,0.295-0.955,0.505s-0.268,0.511-0.268,0.905v6.249
	h11.955v-6.249c0-0.394-0.086-0.692-0.258-0.895c-0.172-0.204-0.492-0.375-0.963-0.515v-0.535h7.563v0.535
	c-0.459,0.127-0.777,0.296-0.955,0.505c-0.178,0.21-0.268,0.512-0.268,0.907v17.478c0,0.395,0.09,0.696,0.268,0.906
	s0.496,0.385,0.955,0.524v0.535h-7.563v-0.535c0.445-0.114,0.76-0.28,0.945-0.497c0.184-0.217,0.275-0.523,0.275-0.919V30.031z"/>
<path d="M341.632,17.502c3.402,0,6.238,0.866,8.506,2.598c2.715,2.088,4.072,4.998,4.072,8.728c0,3.501-1.357,6.296-4.072,8.385
	c-2.242,1.731-5.064,2.597-8.467,2.597s-6.225-0.865-8.467-2.597c-2.727-2.089-4.09-4.94-4.09-8.557c0-3.654,1.363-6.506,4.09-8.556
	C335.46,18.407,338.269,17.541,341.632,17.502z M341.651,21.551c-2.205,0-4.002,0.707-5.393,2.12
	c-1.287,1.324-1.932,2.986-1.932,4.985c0,1.986,0.645,3.642,1.932,4.966c1.391,1.426,3.193,2.139,5.412,2.139
	c2.205,0,4.004-0.713,5.393-2.139c1.287-1.312,1.932-2.936,1.932-4.871c0-2.101-0.645-3.793-1.932-5.08
	C345.661,22.284,343.856,21.577,341.651,21.551z"/>
<path d="M363.815,30.565v6.822c0,0.394,0.09,0.696,0.268,0.905c0.178,0.21,0.496,0.384,0.955,0.523v0.535h-7.563v-0.535
	c0.445-0.114,0.76-0.279,0.945-0.496c0.184-0.217,0.275-0.522,0.275-0.917V19.909c0-0.395-0.088-0.694-0.268-0.897
	c-0.178-0.204-0.496-0.375-0.953-0.516v-0.535h13.941c2.762,0,4.844,0.414,6.246,1.241c0.814,0.484,1.451,1.172,1.908,2.063
	c0.459,0.891,0.688,1.891,0.688,2.999c0,2.127-0.725,3.708-2.176,4.745c-1.451,1.039-3.674,1.557-6.666,1.557H363.815z
	 M363.815,26.689h7.295c1.338,0,2.268-0.127,2.789-0.383c0.764-0.369,1.146-1.05,1.146-2.043c0-0.993-0.383-1.674-1.146-2.044
	c-0.51-0.254-1.439-0.382-2.789-0.382h-7.295V26.689z"/>
<g>
	<path fill-rule="evenodd" clip-rule="evenodd" fill="#BB1717" d="M399.514,38.641c-1.067-0.122-2.146-0.18-3.091-0.798
		c-2.034-1.332-2.129-3.701-0.154-5.106c0.448-0.319,0.506-0.53,0.277-1.026c-1.267-2.753-2.06-5.679-3.07-8.526
		c-1.138-3.208-2.209-6.439-3.292-9.667c-0.359-1.068-1.034-1.708-2.187-1.73c-1.601-0.032-3.202-0.027-4.803-0.053
		c-0.462-0.008-0.94,0-1.382-0.115c-0.506-0.132-0.943-0.401-0.928-1.062c0.015-0.646,0.43-0.915,0.95-1.046
		c1.065-0.267,2.158-0.14,3.239-0.143c1.519-0.005,3.048-0.116,4.54,0.284c1.672,0.448,2.858,1.419,3.455,3.102
		c0.314,0.888,0.408,2.101,1.129,2.533c0.687,0.414,1.806,0.121,2.733,0.122c11.267,0.002,22.531-0.002,33.798,0.005
		c1.083,0,2.163,0.08,3.145,0.616c1.187,0.647,1.669,1.682,1.284,2.975c-1.197,4.022-2.396,8.045-3.666,12.044
		c-0.552,1.735-2.027,2.45-3.686,2.786c-1.505,0.306-3.04,0.147-4.56,0.155c-7.8,0.044-15.602,0.055-23.401,0.083
		c-0.359,0.001-0.727,0.02-1.075,0.098c-0.446,0.099-0.823,0.346-0.883,0.848c-0.061,0.506,0.245,0.8,0.668,1.02
		c0.367,0.19,0.753,0.151,1.136,0.151c9.018,0.002,18.035,0.002,27.053-0.001c0.415,0,0.822,0.028,1.226,0.132
		c0.593,0.151,0.996,0.496,0.963,1.125c-0.032,0.623-0.476,0.986-1.063,1.035c-1.001,0.086-2.009,0.09-3.014,0.128
		c-0.922,0.207-1.871,0.12-2.802,0.248c-0.204,0.028-0.4-0.058-0.553-0.214c-6.135,0-12.27,0-18.404,0
		c-0.418,0.362-0.928,0.246-1.401,0.236C400.965,38.863,400.211,38.989,399.514,38.641z"/>
	<path fill-rule="evenodd" clip-rule="evenodd" d="M421.502,38.643c1.118-0.015,2.235-0.278,3.355-0.034
		c0.578,0.427,1.181,0.824,1.597,1.434c0.619,0.906,0.556,1.876-0.181,2.677c-1.44,1.565-4.459,1.619-5.947,0.104
		c-0.948-0.964-0.942-2.35,0.045-3.293C420.716,39.201,421.123,38.937,421.502,38.643z"/>
	<path fill-rule="evenodd" clip-rule="evenodd" d="M399.514,38.641c1.195-0.101,2.39-0.027,3.584,0.002
		c0.442,0.491,1.03,0.831,1.411,1.39c0.661,0.971,0.584,1.968-0.24,2.787c-1.387,1.38-4.107,1.488-5.612,0.226
		c-1.312-1.104-1.281-2.753,0.075-3.82C398.987,39.023,399.253,38.834,399.514,38.641z"/>
	<path fill-rule="evenodd" clip-rule="evenodd" fill="#FEFEFE" d="M427.865,17.786c-1.632,1.237-3.075,2.337-4.523,3.43
		c-4.361,3.289-8.728,6.571-13.081,9.872c-0.41,0.312-0.832,0.499-1.335,0.517c-2.14,0.074-4.279,0.128-6.419-0.004
		c-0.068-0.004-0.135-0.053-0.29-0.116c1.438-1.093,2.828-2.146,4.215-3.204c4.302-3.285,8.606-6.564,12.896-9.865
		c0.557-0.428,1.104-0.659,1.825-0.645C423.311,17.813,425.47,17.786,427.865,17.786z"/>
	<path fill-rule="evenodd" clip-rule="evenodd" fill="#FEFEFE" d="M411.869,31.614c3.796-2.87,7.479-5.65,11.155-8.437
		c2.075-1.572,4.138-3.158,6.21-4.733c0.725-0.551,1.503-0.827,2.447-0.615c0.525,0.117,0.647,0.384,0.52,0.815
		c-0.392,1.324-0.815,2.639-1.216,3.961c-0.098,0.322-0.327,0.514-0.575,0.699c-3.313,2.501-6.628,5-9.939,7.503
		c-0.93,0.702-1.983,0.948-3.123,0.864C415.577,31.541,413.806,31.636,411.869,31.614z"/>
	<path fill-rule="evenodd" clip-rule="evenodd" fill="#FEFEFE" d="M417.669,17.914c-5.927,4.479-11.853,8.959-17.772,13.433
		c-1.094-1.011-1.291-2.435-1.763-3.723c-0.18-0.491,0.291-0.718,0.613-0.961c2.306-1.734,4.619-3.46,6.922-5.199
		c0.863-0.653,1.72-1.316,2.549-2.011c1.418-1.188,3.016-1.872,4.882-1.727C414.605,17.845,416.109,17.86,417.669,17.914z"/>
	<path fill-rule="evenodd" clip-rule="evenodd" fill="#FEFEFE" d="M407.57,17.942c-2.792,2.108-5.585,4.217-8.378,6.326
		c-0.432,0.326-0.863,0.652-1.288,0.986c-0.299,0.234-0.473,0.324-0.618-0.181c-0.302-1.057-0.672-2.094-1.049-3.127
		c-0.157-0.431-0.064-0.728,0.286-0.989c1.277-0.959,2.552-1.921,3.824-2.886c0.235-0.178,0.496-0.282,0.786-0.282
		c2.133-0.005,4.266-0.002,6.398-0.002C407.545,17.84,407.558,17.891,407.57,17.942z"/>
	<path fill-rule="evenodd" clip-rule="evenodd" fill="#FEFEFE" d="M421.997,31.563c2.752-2.084,5.364-4.063,8.127-6.155
		c-0.523,1.869-0.979,3.565-1.626,5.197c-0.229,0.579-0.789,0.854-1.414,0.928C425.451,31.723,423.815,31.711,421.997,31.563z"/>
	<path fill-rule="evenodd" clip-rule="evenodd" fill="#FDFCFC" d="M398.065,17.854c-0.948,0.723-1.717,1.308-2.524,1.924
		c-0.181-0.511-0.344-0.959-0.498-1.41c-0.107-0.315-0.104-0.534,0.347-0.52C396.206,17.873,397.024,17.854,398.065,17.854z"/>
</g>
</svg>
